PathFileType	4	(X/Y/Z)	markers.trc
DataRate	CameraRate	NumFrames	NumMarkers	Units	OrigDataRate	OrigDataStartFrame	OrigNumFrames
59.94	59.94	35	12	m	59.94	92	137
Frame#	Time	LEFT_SHOULDER			RIGHT_SHOULDER			LEFT_HIP			RIGHT_HIP			LEFT_KNEE			RIGHT_KNEE			LEFT_ANKLE			RIGHT_ANKLE			LEFT_HEEL			RIGHT_HEEL			LEFT_FOOT_INDEX			RIGHT_FOOT_INDEX		
		X1	Y1	Z1	X2	Y2	Z2	X3	Y3	Z3	X4	Y4	Z4	X5	Y5	Z5	X6	Y6	Z6	X7	Y7	Z7	X8	Y8	Z8	X9	Y9	Z9	X10	Y10	Z10	X11	Y11	Z11	X12	Y12	Z12

206	3.420083	6.409693	2.417196	0.000000	7.095751	2.401812	0.000000	6.556199	3.422668	0.000000	6.932395	3.441271	0.000000	6.552375	4.119299	0.000000	6.906234	4.178931	0.000000	6.609774	4.764235	0.000000	6.842045	4.826389	0.000000	6.661392	4.850845	0.000000	6.791619	4.911437	0.000000	6.556821	5.069640	0.000000	6.859690	5.077145	0.000000
207	3.436767	6.404815	2.413541	0.000000	7.097488	2.397285	0.000000	6.550575	3.416627	0.000000	6.931987	3.438877	0.000000	6.549069	4.116741	0.000000	6.905775	4.178411	0.000000	6.599432	4.831282	0.000000	6.840101	4.828899	0.000000	6.650475	4.930319	0.000000	6.788529	4.918340	0.000000	6.537325	5.116646	0.000000	6.860363	5.080011	0.000000
208	3.453450	6.399010	2.411243	0.000000	7.098785	2.394350	0.000000	6.545239	3.411625	0.000000	6.931493	3.436796	0.000000	6.546657	4.117088	0.000000	6.905226	4.177447	0.000000	6.588851	4.894635	0.000000	6.838150	4.831212	0.000000	6.638964	5.005693	0.000000	6.785926	4.925798	0.000000	6.517675	5.156419	0.000000	6.861034	5.082356	0.000000
209	3.470133	6.392297	2.410078	0.000000	7.099672	2.392760	0.000000	6.540511	3.408340	0.000000	6.930959	3.435354	0.000000	6.545080	4.121152	0.000000	6.904623	4.176272	0.000000	6.578570	4.953154	0.000000	6.836417	4.832977	0.000000	6.627437	5.076377	0.000000	6.784010	4.932306	0.000000	6.498490	5.188740	0.000000	6.861603	5.084117	0.000000
210	3.486817	6.384767	2.409788	0.000000	7.100171	2.392207	0.000000	6.536601	3.407318	0.000000	6.930469	3.434877	0.000000	6.544255	4.129685	0.000000	6.904023	4.175200	0.000000	6.569156	5.006047	0.000000	6.835079	4.833945	0.000000	6.616545	5.141833	0.000000	6.782810	4.936442	0.000000	6.480284	5.214584	0.000000	6.862012	5.085307	0.000000
211	3.503500	6.376533	2.410127	0.000000	7.100254	2.392406	0.000000	6.533562	3.409010	0.000000	6.930109	3.435693	0.000000	6.544041	4.143088	0.000000	6.903505	4.174599	0.000000	6.561094	5.053075	0.000000	6.834202	4.833972	0.000000	6.606961	5.201623	0.000000	6.782227	4.937197	0.000000	6.463478	5.235986	0.000000	6.862238	5.085954	0.000000
212	3.520183	6.367682	2.410891	0.000000	7.099797	2.393130	0.000000	6.531243	3.413779	0.000000	6.929896	3.438129	0.000000	6.544224	4.161204	0.000000	6.903147	4.174858	0.000000	6.554707	5.094759	0.000000	6.833745	4.832975	0.000000	6.599252	5.255415	0.000000	6.782103	4.934043	0.000000	6.448662	5.255834	0.000000	6.862279	5.086107	0.000000
213	3.536867	6.358245	2.411933	0.000000	7.098570	2.394193	0.000000	6.529261	3.421769	0.000000	6.929716	3.442433	0.000000	6.544538	4.183398	0.000000	6.902994	4.176369	0.000000	6.550069	5.132223	0.000000	6.833618	4.830880	0.000000	6.593673	5.302889	0.000000	6.782287	4.926916	0.000000	6.436797	5.277549	0.000000	6.862155	5.085865	0.000000
214	3.553550	6.348229	2.413148	0.000000	7.096256	2.395437	0.000000	6.527017	3.432723	0.000000	6.929324	3.448677	0.000000	6.544694	4.208758	0.000000	6.903045	4.179515	0.000000	6.546993	5.166640	0.000000	6.833739	4.827589	0.000000	6.590062	5.343711	0.000000	6.782672	4.916251	0.000000	6.428805	5.304536	0.000000	6.861907	5.085372	0.000000
215	3.570233	6.337634	2.414481	0.000000	7.092518	2.396724	0.000000	6.523770	3.445995	0.000000	6.928361	3.456757	0.000000	6.544400	4.236191	0.000000	6.903259	4.184599	0.000000	6.545109	5.198859	0.000000	6.834069	4.822981	0.000000	6.587983	5.377784	0.000000	6.783210	4.902909	0.000000	6.424936	5.339441	0.000000	6.861597	5.084773	0.000000
216	3.586917	6.326448	2.415925	0.000000	7.087103	2.397937	0.000000	6.518802	3.460785	0.000000	6.926413	3.466487	0.000000	6.543381	4.264526	0.000000	6.903568	4.191749	0.000000	6.543996	5.229473	0.000000	6.834615	4.816981	0.000000	6.586964	5.405730	0.000000	6.783892	4.887896	0.000000	6.424593	5.383390	0.000000	6.861297	5.084176	0.000000
217	3.603600	6.314631	2.417500	0.000000	7.079938	2.398962	0.000000	6.511607	3.476386	0.000000	6.923103	3.477618	0.000000	6.541418	4.292700	0.000000	6.903910	4.200991	0.000000	6.543293	5.258890	0.000000	6.835414	4.809679	0.000000	6.586645	5.428906	0.000000	6.784722	4.872037	0.000000	6.426561	5.435542	0.000000	6.861053	5.083634	0.000000
218	3.620283	6.302124	2.419218	0.000000	7.071184	2.399671	0.000000	6.502040	3.492232	0.000000	6.918210	3.489778	0.000000	6.538414	4.319897	0.000000	6.904257	4.212533	0.000000	6.542747	5.287192	0.000000	6.836503	4.801384	0.000000	6.586808	5.448760	0.000000	6.785685	4.855825	0.000000	6.429379	5.493294	0.000000	6.860878	5.083179	0.000000
219	3.636967	6.288874	2.421031	0.000000	7.061175	2.399907	0.000000	6.490318	3.507751	0.000000	6.911722	3.502383	0.000000	6.534423	4.345478	0.000000	6.904624	4.226887	0.000000	6.542218	5.313939	0.000000	6.837870	4.792565	0.000000	6.587317	5.466120	0.000000	6.786729	4.839450	0.000000	6.431802	5.552811	0.000000	6.860770	5.082859	0.000000
220	3.653650	6.274888	2.422812	0.000000	7.050316	2.399465	0.000000	6.476871	3.522210	0.000000	6.903770	3.514630	0.000000	6.529617	4.368723	0.000000	6.905065	4.244530	0.000000	6.541670	5.338030	0.000000	6.839445	4.783699	0.000000	6.588066	5.480981	0.000000	6.787771	4.822951	0.000000	6.433156	5.609496	0.000000	6.860729	5.082771	0.000000
221	3.670333	6.260237	2.424377	0.000000	7.039018	2.398108	0.000000	6.462194	3.534817	0.000000	6.894565	3.525691	0.000000	6.524235	4.388703	0.000000	6.905639	4.265426	0.000000	6.541158	5.358041	0.000000	6.841121	4.775117	0.000000	6.588958	5.492904	0.000000	6.788729	4.806372	0.000000	6.433396	5.658884	0.000000	6.860786	5.083081	0.000000
222	3.687017	6.245012	2.425533	0.000000	7.027687	2.395606	0.000000	6.446795	3.545045	0.000000	6.884410	3.534995	0.000000	6.518550	4.404636	0.000000	6.906375	4.288928	0.000000	6.540789	5.373016	0.000000	6.842811	4.766938	0.000000	6.589918	5.501614	0.000000	6.789547	4.789815	0.000000	6.432939	5.697978	0.000000	6.861018	5.084035	0.000000
223	3.703700	6.229342	2.426079	0.000000	7.016702	2.391758	0.000000	6.431222	3.552822	0.000000	6.873775	3.542348	0.000000	6.512826	4.416409	0.000000	6.907235	4.314070	0.000000	6.540668	5.382942	0.000000	6.844469	4.759133	0.000000	6.590893	5.507230	0.000000	6.790194	4.773451	0.000000	6.432389	5.725938	0.000000	6.861549	5.085960	0.000000
224	3.720383	6.213434	2.425792	0.000000	7.006364	2.386376	0.000000	6.416106	3.558442	0.000000	6.863308	3.547798	0.000000	6.507293	4.424750	0.000000	6.908105	4.339873	0.000000	6.540839	5.388559	0.000000	6.846075	4.751721	0.000000	6.591821	5.510172	0.000000	6.790640	4.757651	0.000000	6.432270	5.743751	0.000000	6.862538	5.089306	0.000000
225	3.737067	6.197583	2.424400	0.000000	6.996882	2.379268	0.000000	6.402120	3.562377	0.000000	6.853727	3.551528	0.000000	6.502134	4.431015	0.000000	6.908819	4.365436	0.000000	6.541253	5.390958	0.000000	6.847574	4.745059	0.000000	6.592604	5.511037	0.000000	6.790826	4.743308	0.000000	6.432909	5.753516	0.000000	6.864136	5.094823	0.000000
226	3.753750	6.182149	2.421609	0.000000	6.988382	2.370262	0.000000	6.389879	3.565123	0.000000	6.845636	3.553838	0.000000	6.497452	4.436828	0.000000	6.909200	4.389970	0.000000	6.541775	5.391287	0.000000	6.848845	4.740147	0.000000	6.593114	5.510466	0.000000	6.790657	4.732038	0.000000	6.434442	5.757743	0.000000	6.866418	5.103801	0.000000
227	3.770433	6.167485	2.417147	0.000000	6.980902	2.359241	0.000000	6.379824	3.567114	0.000000	6.839394	3.555130	0.000000	6.493197	4.443735	0.000000	6.909063	4.412953	0.000000	6.542224	5.390591	0.000000	6.849738	4.738762	0.000000	6.593224	5.508987	0.000000	6.790014	4.726119	0.000000	6.436854	5.758757	0.000000	6.869304	5.118122	0.000000
228	3.787117	6.153875	2.410792	0.000000	6.974360	2.346171	0.000000	6.372135	3.568713	0.000000	6.835039	3.555861	0.000000	6.489154	4.452893	0.000000	6.908209	4.434293	0.000000	6.542410	5.389689	0.000000	6.850121	4.743417	0.000000	6.592837	5.506935	0.000000	6.788789	4.728374	0.000000	6.439998	5.758339	0.000000	6.872518	5.139988	0.000000
229	3.803800	6.141520	2.402363	0.000000	6.968563	2.331183	0.000000	6.366653	3.570213	0.000000	6.832294	3.556478	0.000000	6.485006	4.464785	0.000000	6.906435	4.454283	0.000000	6.542170	5.389101	0.000000	6.849902	4.757175	0.000000	6.591923	5.504442	0.000000	6.786942	4.742167	0.000000	6.443585	5.757592	0.000000	6.875627	5.171512	0.000000
230	3.820483	6.130518	2.391693	0.000000	6.963275	2.314647	0.000000	6.362875	3.571805	0.000000	6.830670	3.557332	0.000000	6.480431	4.479087	0.000000	6.903540	4.473187	0.000000	6.541394	5.389033	0.000000	6.849014	4.783181	0.000000	6.590553	5.501477	0.000000	6.784584	4.771179	0.000000	6.447185	5.756961	0.000000	6.878172	5.214299	0.000000
231	3.837167	6.120795	2.378659	0.000000	6.958308	2.297149	0.000000	6.360066	3.573520	0.000000	6.829609	3.558578	0.000000	6.475159	4.494742	0.000000	6.899306	4.490783	0.000000	6.540045	5.389418	0.000000	6.847411	4.823940	0.000000	6.588912	5.497966	0.000000	6.781980	4.818723	0.000000	6.450330	5.756422	0.000000	6.879804	5.269038	0.000000
232	3.853850	6.112011	2.363335	0.000000	6.953560	2.279394	0.000000	6.357400	3.575206	0.000000	6.828593	3.560101	0.000000	6.469010	4.510175	0.000000	6.893495	4.506343	0.000000	6.538170	5.390009	0.000000	6.845059	4.880690	0.000000	6.587240	5.493966	0.000000	6.779429	4.886722	0.000000	6.452668	5.755788	0.000000	6.880318	5.335238	0.000000
233	3.870533	6.103559	2.346186	0.000000	6.948985	2.262126	0.000000	6.354117	3.576616	0.000000	6.827205	3.561557	0.000000	6.461934	4.523682	0.000000	6.885915	4.519156	0.000000	6.535882	5.390521	0.000000	6.841935	4.952948	0.000000	6.585744	5.489803	0.000000	6.777076	4.974667	0.000000	6.453998	5.754936	0.000000	6.879569	5.411028	0.000000
234	3.887217	6.094722	2.328123	0.000000	6.944532	2.245997	0.000000	6.349652	3.577554	0.000000	6.825163	3.562561	0.000000	6.454039	4.533930	0.000000	6.876516	4.529132	0.000000	6.533318	5.390752	0.000000	6.838023	5.038195	0.000000	6.584526	5.486065	0.000000	6.774843	5.078986	0.000000	6.454208	5.753882	0.000000	6.877337	5.492983	0.000000
235	3.903900	6.084911	2.310371	0.000000	6.940107	2.231449	0.000000	6.343694	3.577989	0.000000	6.822333	3.562879	0.000000	6.445581	4.540340	0.000000	6.865449	4.537051	0.000000	6.530596	5.390623	0.000000	6.833320	5.132019	0.000000	6.583576	5.483415	0.000000	6.772492	5.193457	0.000000	6.453226	5.752770	0.000000	6.873197	5.576317	0.000000
236	3.920583	6.073848	2.294206	0.000000	6.935617	2.218691	0.000000	6.336199	3.578094	0.000000	6.818727	3.562516	0.000000	6.436924	4.543213	0.000000	6.853073	4.544421	0.000000	6.527807	5.390147	0.000000	6.827877	5.228877	0.000000	6.582811	5.482300	0.000000	6.769780	5.310613	0.000000	6.451053	5.751799	0.000000	6.866547	5.655857	0.000000
237	3.937267	6.061614	2.280622	0.000000	6.931036	2.207769	0.000000	6.327391	3.578256	0.000000	6.814469	3.561722	0.000000	6.428485	4.543590	0.000000	6.839929	4.553099	0.000000	6.525054	5.389365	0.000000	6.821877	5.323284	0.000000	6.582136	5.482685	0.000000	6.766614	5.423308	0.000000	6.447849	5.751128	0.000000	6.856862	5.727775	0.000000
238	3.953950	6.048537	2.270085	0.000000	6.926403	2.198641	0.000000	6.317703	3.579066	0.000000	6.809728	3.560999	0.000000	6.420649	4.543014	0.000000	6.826673	4.564883	0.000000	6.522469	5.388302	0.000000	6.815676	5.411106	0.000000	6.581494	5.483991	0.000000	6.763125	5.525939	0.000000	6.443991	5.750845	0.000000	6.844033	5.791233	0.000000
239	3.970633	6.035050	2.262540	0.000000	6.921804	2.191254	0.000000	6.307629	3.581256	0.000000	6.804637	3.561087	0.000000	6.413672	4.543266	0.000000	6.813968	4.581104	0.000000	6.520186	5.386960	0.000000	6.809702	5.490155	0.000000	6.580891	5.485363	0.000000	6.759573	5.615048	0.000000	6.439945	5.751007	0.000000	6.828451	5.848517	0.000000
240	3.987317	6.021641	2.257594	0.000000	6.917385	2.185608	0.000000	6.297546	3.585570	0.000000	6.799241	3.562870	0.000000	6.407616	4.546075	0.000000	6.802298	4.602168	0.000000	6.518277	5.385379	0.000000	6.804202	5.559567	0.000000	6.580371	5.486085	0.000000	6.756121	5.689040	0.000000	6.436006	5.751705	0.000000	6.810698	5.903289	0.000000
